# xmcd CD database file
#
# Track frame offsets:
#	150
#	20199
#	41258
#	61348
#	78407
#	95696
#
# Disc length: 1456 seconds
#
# Revision: 0
# Processed by: cddbd v1.5.2PL0 Copyright (c) Steve Scherf et al.
# Submitted via: CDex 1.70beta2
#
DISCID=4605ae06
DTITLE=Totem - Release
DYEAR=2000
DGENRE=Country
TTITLE0=Ainda Nao
TTITLE1=Dia Cinza
TTITLE2=Gravidade
TTITLE3=Come Together
TTITLE4=Tuaregue e Nago
TTITLE5=Acorde em Blues
EXTD=YEAR: 2000
EXTT0=
EXTT1=
EXTT2=
EXTT3=
EXTT4=
EXTT5=
PLAYORDER=
